<?xml version="1.0" encoding="UTF-8"?>
<svg width="800" height="600" xmlns="http://www.w3.org/2000/svg">
    <defs>
        <linearGradient id="grad2" x1="0%" y1="0%" x2="100%" y2="100%">
            <stop offset="0%" style="stop-color:#0d6efd;stop-opacity:0.1"/>
            <stop offset="100%" style="stop-color:#0a58ca;stop-opacity:0.05"/>
        </linearGradient>
    </defs>
    <rect width="100%" height="100%" fill="url(#grad2)"/>
    <g transform="translate(200,100)">
        <rect x="0" y="0" width="400" height="400" rx="20" fill="#fff" stroke="#0d6efd" stroke-width="2"/>
        <g transform="translate(50,50)">
            <rect x="0" y="0" width="300" height="50" rx="5" fill="#f8f9fa"/>
            <text x="20" y="30" font-family="Arial" font-size="16" fill="#0d6efd">Student Attendance</text>
            <rect x="250" y="15" width="20" height="20" fill="#0d6efd"/>
        </g>
        <g transform="translate(50,120)">
            <rect x="0" y="0" width="300" height="50" rx="5" fill="#f8f9fa"/>
            <text x="20" y="30" font-family="Arial" font-size="16" fill="#0d6efd">Faculty Management</text>
            <rect x="250" y="15" width="20" height="20" fill="#0d6efd"/>
        </g>
        <g transform="translate(50,190)">
            <rect x="0" y="0" width="300" height="50" rx="5" fill="#f8f9fa"/>
            <text x="20" y="30" font-family="Arial" font-size="16" fill="#0d6efd">Reports & Analytics</text>
            <rect x="250" y="15" width="20" height="20" fill="#0d6efd"/>
        </g>
        <circle cx="200" cy="300" r="50" fill="none" stroke="#0d6efd" stroke-width="2"/>
        <path d="M200,270 L200,330 M170,300 L230,300" stroke="#0d6efd" stroke-width="2"/>
    </g>
</svg>
